<?xml version="1.0" encoding="UTF-8"?>
<svg version="1.1" xmlns="http://www.w3.org/2000/svg" width="554" height="537">
<path d="M0 0 C182.82 0 365.64 0 554 0 C554 177.21 554 354.42 554 537 C371.18 537 188.36 537 0 537 C0 359.79 0 182.58 0 0 Z " fill="#F8F9F8" transform="translate(0,0)"/>
<path d="M0 0 C182.82 0 365.64 0 554 0 C554 177.21 554 354.42 554 537 C371.18 537 188.36 537 0 537 C0 359.79 0 182.58 0 0 Z M228 42 C226.94619141 42.23227295 226.94619141 42.23227295 225.87109375 42.46923828 C221.5118511 43.44746793 217.26582003 44.67750674 213 46 C212.27586914 46.20898926 211.55173828 46.41797852 210.80566406 46.63330078 C185.97302145 53.82007509 162.79453279 65.71682618 142 81 C141.32952637 81.49097168 140.65905273 81.98194336 139.96826172 82.48779297 C131.09768299 89.05850803 122.96222034 96.36709239 115 104 C114.05253906 104.89460938 113.10507813 105.78921875 112.12890625 106.7109375 C104.99576372 113.61136758 98.91424055 121.06104502 93 129 C92.56800293 129.5765332 92.13600586 130.15306641 91.69091797 130.74707031 C81.57199055 144.32844239 73.22453089 158.692652 66 174 C65.69320312 174.64549805 65.38640625 175.29099609 65.0703125 175.95605469 C60.02985636 186.66702398 56.26408745 197.62944386 53 209 C52.80277344 209.68030273 52.60554688 210.36060547 52.40234375 211.06152344 C51.08858335 215.67576233 49.98860778 220.30824603 49 225 C48.84901855 225.68465332 48.69803711 226.36930664 48.54248047 227.07470703 C45.76831622 240.23926856 45.7095647 253.48127714 45.6875 266.875 C45.68391479 267.75582245 45.68032959 268.6366449 45.67663574 269.54415894 C45.65257625 280.54613157 46.17947972 291.12774458 48 302 C48.14590576 302.89493164 48.29181152 303.78986328 48.44213867 304.71191406 C56.59740227 352.10692755 79.09222468 394.24628992 112 429 C112.8765625 429.93070312 113.753125 430.86140625 114.65625 431.8203125 C121.05036061 438.4212914 127.86563623 444.12541355 135.19384766 449.63378906 C136.9512024 450.96308849 138.68531559 452.3184237 140.41796875 453.6796875 C168.87212065 475.69206892 203.70593052 489.70971798 239 496 C239.9583374 496.17732666 240.9166748 496.35465332 241.90405273 496.53735352 C252.5754975 498.30348273 263.14561131 498.35412283 273.9375 498.3125 C275.36556473 498.31026428 275.36556473 498.31026428 276.82247925 498.3079834 C291.08217635 498.26782073 304.96496759 497.70820176 319 495 C319.74185547 494.87141602 320.48371094 494.74283203 321.24804688 494.61035156 C369.46114595 486.21896629 418.60810805 457.80825668 450 420 C450.78246094 419.12859375 451.56492187 418.2571875 452.37109375 417.359375 C480.52183006 385.76160976 497.27111877 345.99020462 505.375 304.8125 C505.60872314 303.63059082 505.60872314 303.63059082 505.84716797 302.42480469 C516.41670492 244.33472648 499.12477186 184.64348161 466.28515625 136.6875 C462.74145085 131.59048541 459.05078888 126.70538404 455 122 C454.04351522 120.86131136 453.08785457 119.72193019 452.1328125 118.58203125 C419.4833894 79.81790662 374.40127267 52.68479036 324.75 42.1875 C323.82936768 41.99260986 322.90873535 41.79771973 321.96020508 41.59692383 C306.33089345 38.49186227 290.89867757 37.59343134 275 37.625 C273.58950378 37.62481873 273.58950378 37.62481873 272.1505127 37.62463379 C257.09088847 37.65211835 242.72191567 38.58845591 228 42 Z " fill="#F7F7F7" transform="translate(0,0)"/>
<path d="M0 0 C0.87672363 0.16097168 1.75344727 0.32194336 2.65673828 0.48779297 C44.1024406 8.22680214 82.26811599 28.34892063 113 57 C114.2065625 58.05380859 114.2065625 58.05380859 115.4375 59.12890625 C156.78942445 95.24722776 184.7534568 152.45162035 189 207 C189.95717536 226.56603338 189.85522927 246.65798017 185.875 265.875 C185.65545654 266.94161865 185.43591309 268.0082373 185.2097168 269.10717773 C176.25950477 311.18958246 157.8826562 349.02631382 129 381 C128.45134277 381.61037109 127.90268555 382.22074219 127.33740234 382.84960938 C121.22021469 389.62892156 115.11684148 396.25225628 108 402 C106.92550952 402.89811251 105.85131995 403.79658507 104.77734375 404.6953125 C75.9184875 428.59004087 40.63398639 445.74086854 3.875 453.25 C3.13701172 453.40114258 2.39902344 453.55228516 1.63867188 453.70800781 C-13.55592591 456.60190584 -28.6273094 457.41014249 -44.0625 457.375 C-45.0077655 457.37412384 -45.95303101 457.37324768 -46.92694092 457.37234497 C-61.62817312 457.32749481 -75.6773182 456.55958889 -90 453 C-90.9895166 452.76394043 -91.9790332 452.52788086 -92.99853516 452.28466797 C-127.73571349 443.8386163 -159.24923912 428.47322323 -187 406 C-187.51981445 405.58314941 -188.03962891 405.16629883 -188.57519531 404.73681641 C-202.16814102 393.78810384 -214.43217554 381.60907089 -224.83154297 367.57421875 C-225.89449898 366.1421376 -226.97930906 364.72634285 -228.06640625 363.3125 C-263.99359712 315.69989958 -279.09398597 254.82028509 -272.23022461 195.79736328 C-271.64741229 191.82302385 -270.89531653 187.91532765 -270 184 C-269.79068848 183.07670898 -269.58137695 182.15341797 -269.36572266 181.20214844 C-260.9052478 144.90533416 -245.29470892 112.1603406 -222 83 C-221.55479004 82.43909668 -221.10958008 81.87819336 -220.65087891 81.30029297 C-210.19340037 68.23328443 -198.33350043 56.13272872 -185 46 C-184.45972168 45.58331055 -183.91944336 45.16662109 -183.36279297 44.73730469 C-162.37095134 28.60059884 -138.48202652 14.60038752 -113 7 C-112.2378418 6.76619629 -111.47568359 6.53239258 -110.69042969 6.29150391 C-104.17664397 4.31334501 -97.62190316 2.57764248 -91 1 C-89.64310059 0.67588135 -89.64310059 0.67588135 -88.25878906 0.34521484 C-60.37436128 -5.95756695 -27.97250001 -5.50915461 0 0 Z M-77 14 C-78.35279053 14.20314819 -78.35279053 14.20314819 -79.73291016 14.41040039 C-119.32106491 20.76006203 -155.17878466 39.65561473 -185 66 C-185.51836426 66.4552002 -186.03672852 66.91040039 -186.57080078 67.37939453 C-221.43971974 98.13965992 -247.27450568 141.92098778 -255 188 C-255.27457031 189.23878906 -255.54914063 190.47757813 -255.83203125 191.75390625 C-260.74499972 215.40309962 -259.59143794 242.41445618 -255 266 C-254.86078125 266.76683105 -254.7215625 267.53366211 -254.578125 268.32373047 C-244.78696283 321.64250129 -211.37143655 371.36916865 -167.26318359 402.44384766 C-137.87687768 422.64970676 -106.24894286 435.30842757 -71 441 C-69.91090332 441.17958252 -68.82180664 441.35916504 -67.69970703 441.54418945 C-63.63624289 442.04481553 -59.68993467 442.16183505 -55.6015625 442.16796875 C-54.80833588 442.17129715 -54.01510925 442.17462555 -53.19784546 442.17805481 C-51.52203953 442.18309543 -49.84622366 442.18546403 -48.17041016 442.18530273 C-45.66681245 442.18746391 -43.16367473 442.20557967 -40.66015625 442.22460938 C-29.95915894 442.26282581 -19.58713637 441.54645838 -9 440 C-7.93249512 439.84426514 -6.86499023 439.68853027 -5.76513672 439.52807617 C25.43694355 434.59503297 56.58612277 421.89393349 82 403 C82.5892627 402.56333008 83.17852539 402.12666016 83.78564453 401.67675781 C92.32527337 395.28411731 100.28944976 388.36389063 108 381 C108.92554688 380.12730469 109.85109375 379.25460937 110.8046875 378.35546875 C117.96143735 371.43187081 124.05176619 363.96502627 130 356 C130.43199707 355.42878418 130.86399414 354.85756836 131.30908203 354.26904297 C150.74591693 328.46865166 165.11542845 297.22046174 170.59423828 265.34375 C170.86429956 263.78382924 171.14910841 262.22638859 171.44873047 260.671875 C176.23603682 235.77169814 175.47671902 209.68798731 170 185 C169.81808105 184.13665039 169.63616211 183.27330078 169.44873047 182.38378906 C161.32879449 144.2875747 142.00591996 108.04301366 115 80 C114.17556396 79.12891602 114.17556396 79.12891602 113.33447266 78.24023438 C103.64077521 68.03634233 93.47037212 59.14992891 82 51 C81.37270996 50.54931152 80.74541992 50.09862305 80.09912109 49.63427734 C45.61309377 25.04591399 3.09970222 11.81058398 -39.11083984 11.81469727 C-41.59881018 11.81252289 -44.08632714 11.79434646 -46.57421875 11.77539062 C-56.88826782 11.73876785 -66.80131613 12.42120529 -77 14 Z " fill="#050505" transform="translate(319,41)"/>
<path d="M0 0 C1.16660156 0.42410156 2.33320313 0.84820312 3.53515625 1.28515625 C23.22745758 8.97779627 39.80577729 23.64949385 48.375 43.125 C49.33896762 45.73338297 50.197337 48.3383196 51 51 C51.35578125 51.89460938 51.7115625 52.78921875 52.078125 53.7109375 C56.57610904 69.75882972 51.93294322 86.88119603 44.30078125 101.09375 C32.56706971 121.74265778 12.16790787 132.87728098 -10 139 C-17.78260538 141.10504801 -25.54745278 141.1849666 -33.5625 141.25 C-34.99952271 141.26426025 -34.99952271 141.26426025 -36.46557617 141.27880859 C-42.32284508 141.2517218 -47.77722198 140.65092707 -53.50756836 139.42871094 C-58.53891557 138.55577504 -58.53891557 138.55577504 -63.10546875 140.35546875 C-63.79253906 140.96003906 -64.47960937 141.56460938 -65.1875 142.1875 C-72.30499279 148.02054459 -80.8461622 152.42618227 -90 154 C-92.2890625 153.5703125 -92.2890625 153.5703125 -94 153 C-93.49339844 151.85724609 -93.49339844 151.85724609 -92.9765625 150.69140625 C-89.36826607 142.33809573 -86.05443593 134.25008329 -87 125 C-89.12456896 122.50001306 -89.12456896 122.50001306 -92.0625 120.5625 C-105.23264321 110.54577136 -114.10288208 96.43959999 -117 80 C-117.84356482 68.14006046 -118.35167171 55.86954441 -113 45 C-112.56429687 44.07445312 -112.12859375 43.14890625 -111.6796875 42.1953125 C-108.26206762 35.45345033 -103.98199873 29.66345512 -99 24 C-98.33355469 23.23816406 -97.66710937 22.47632813 -96.98046875 21.69140625 C-73.97651471 -2.93434788 -31.48665697 -12.6182483 0 0 Z " fill="#B4D59B" transform="translate(280,134)"/>
<path d="M0 0 C2.20820691 -0.02190824 4.41647782 -0.03741598 6.62475586 -0.05029297 C8.46933632 -0.06429642 8.46933632 -0.06429642 10.35118103 -0.07858276 C15.54665676 0.03330956 20.47844854 0.85891034 25.5625 1.875 C26.50673828 2.04902344 27.45097656 2.22304687 28.42382812 2.40234375 C32.809961 3.23809243 36.93046403 4.08998523 41 6 C40.6596875 6.42667969 40.319375 6.85335937 39.96875 7.29296875 C28.06850725 22.64301591 19.57625757 38.58427307 19.6875 58.25 C19.69241455 59.27270996 19.6973291 60.29541992 19.70239258 61.34912109 C19.81540026 68.62449757 20.51301727 75.12068486 23 82 C23.3403125 83.04929687 23.680625 84.09859375 24.03125 85.1796875 C29.11898293 99.78973139 38.26500742 111.20098335 50 121 C48.12268061 130.02029072 45.3229543 137.07286087 40.1875 144.6875 C38.67875591 147.62558059 38.71025505 149.74036932 39 153 C39.33 153.66 39.66 154.32 40 155 C57.96719749 156.26331857 77.23264675 149.81939123 91 138 C94.66724193 139.54277074 96.98936509 141.79140444 99.8125 144.5625 C110.60498552 154.49502651 122.2212793 159.48851172 136 165 C136 195.69 136 226.38 136 258 C130.555 254.535 130.555 254.535 125 251 C89.56391877 229.44891749 48.98342227 217.21682855 8.01489258 211.98730469 C2.20885521 211.20885521 2.20885521 211.20885521 0 209 C-0.19338427 206.24171002 -0.26041778 203.58419929 -0.24050903 200.82504272 C-0.24221788 199.96987143 -0.24392673 199.11470014 -0.24568737 198.23361456 C-0.24899682 195.35146013 -0.23795471 192.46953554 -0.22705078 189.58740234 C-0.22648698 187.52802028 -0.22680261 185.46863781 -0.22793579 183.40925598 C-0.22851152 177.80414634 -0.21672161 172.19912164 -0.20278788 166.59403181 C-0.19031718 160.74169815 -0.18911292 154.88936272 -0.18673706 149.03701782 C-0.1805115 137.94832621 -0.16408616 126.85967385 -0.14403808 115.77099955 C-0.1217125 103.1496752 -0.11069407 90.52834901 -0.10064721 77.90700984 C-0.07972084 51.93798476 -0.04452402 25.96899458 0 0 Z " fill="#79BFDB" transform="translate(133,144)"/>
<path d="M0 0 C1.25367119 0.00264359 1.25367119 0.00264359 2.53266907 0.00534058 C4.58347032 0.00991928 6.63426591 0.0169245 8.68505859 0.02441406 C8.73172014 27.10969628 8.7670187 54.19497251 8.78868294 81.28028679 C8.79900809 93.85565406 8.81309203 106.43099639 8.8359375 119.00634766 C8.85583351 129.9633594 8.868766 140.92035309 8.87323558 151.8773824 C8.8758494 157.68234498 8.8820186 163.48725592 8.89651871 169.292202 C8.91004283 174.75038682 8.91429177 180.20849847 8.91127396 185.66669846 C8.91182645 187.67510882 8.91583454 189.6835215 8.92346954 191.69191742 C8.93334999 194.42384324 8.93105291 197.155489 8.92556763 199.88742065 C8.93139331 200.69091222 8.93721899 201.49440378 8.94322121 202.32224357 C8.91330102 207.79617164 8.91330102 207.79617164 6.68505859 210.02441406 C4.55639648 210.55517578 4.55639648 210.55517578 1.90771484 210.95410156 C0.92891357 211.10733887 -0.0498877 211.26057617 -1.05834961 211.41845703 C-2.63942505 211.65653076 -2.63942505 211.65653076 -4.25244141 211.89941406 C-20.14379673 214.43626213 -35.43316853 217.48302636 -50.72509766 222.54003906 C-53.59168498 223.48500213 -56.45643415 224.35894528 -59.37353516 225.13378906 C-83.40420942 231.54079219 -107.12420177 242.65295301 -127.50024414 256.91186523 C-129.31494141 258.02441406 -129.31494141 258.02441406 -131.31494141 258.02441406 C-131.31494141 228.65441406 -131.31494141 199.28441406 -131.31494141 169.02441406 C-128.34494141 169.35441406 -125.37494141 169.68441406 -122.31494141 170.02441406 C-118.14806432 170.21512882 -113.985854 170.20941651 -109.81494141 170.21191406 C-108.73857422 170.22416016 -107.66220703 170.23640625 -106.55322266 170.24902344 C-100.16444865 170.26069598 -94.48350931 169.63663499 -88.31494141 168.02441406 C-81.80777027 166.93988554 -78.64121906 169.57519329 -73.46337891 173.07910156 C-62.33295829 179.95621008 -45.51052357 186.5031422 -32.31494141 184.02441406 C-29.45739541 182.28590706 -28.48811269 181.6856135 -27.62744141 178.39941406 C-28.3632095 174.78746161 -29.12033174 173.81798443 -31.43994141 171.08691406 C-34.81336849 167.05257065 -36.87210687 163.04682991 -38.81494141 158.21191406 C-39.08193848 157.56552979 -39.34893555 156.91914551 -39.62402344 156.25317383 C-40.60483234 153.70897278 -41.33723075 151.53439435 -41.21728516 148.79003906 C-40.00312397 146.41427779 -38.47080772 145.23879715 -36.37744141 143.58691406 C-22.14481926 131.30024662 -12.8911545 113.67334975 -10.9987793 94.88549805 C-10.8436447 91.67483233 -10.79569991 88.48870561 -10.81494141 85.27441406 C-10.82138672 84.13842773 -10.82783203 83.00244141 -10.83447266 81.83203125 C-11.25400784 62.4285289 -19.58695387 46.41483263 -32.31494141 32.02441406 C-33.10771484 31.10789063 -33.10771484 31.10789063 -33.91650391 30.17285156 C-39.84201188 23.78030848 -47.58830483 18.59794664 -55.21337891 14.44628906 C-55.90689453 13.97707031 -56.60041016 13.50785156 -57.31494141 13.02441406 C-57.31494141 12.03441406 -57.31494141 11.04441406 -57.31494141 10.02441406 C-47.49758551 7.31464614 -37.6783254 4.77815131 -27.68994141 2.77441406 C-26.8865332 2.61166992 -26.083125 2.44892578 -25.25537109 2.28125 C-22.94621074 1.83014485 -20.63512855 1.41465033 -18.31494141 1.02441406 C-17.67073242 0.91548828 -17.02652344 0.8065625 -16.36279297 0.69433594 C-10.91301482 -0.06338723 -5.48982446 -0.02201199 0 0 Z " fill="#7BBEDE" transform="translate(412.31494140625,143.9755859375)"/>
<path d="M0 0 C9 0 9 0 12.5 2.375 C16.39564899 6.46543144 16.15039697 9.38586976 16.15390015 14.79290771 C16.1582824 15.60709364 16.16266465 16.42127957 16.1671797 17.2601378 C16.18059475 20.00383112 16.18675262 22.74749231 16.19287109 25.49121094 C16.20076992 27.45219062 16.20903874 29.41316883 16.21765137 31.37414551 C16.24389659 37.82754117 16.25918138 44.2809434 16.2734375 50.734375 C16.27879613 52.95375829 16.28417363 55.17314153 16.28956985 57.39252472 C16.31120214 66.62290255 16.32993976 75.85327861 16.34119225 85.08367538 C16.35743682 98.3231739 16.39062312 111.56237916 16.44759309 124.80176711 C16.48626232 134.10458438 16.50582136 143.40732312 16.51111281 152.71021867 C16.51477036 158.26946746 16.52683467 163.82840365 16.55921555 169.38756561 C16.58924293 174.61773935 16.59562694 179.84741049 16.58383179 185.07765198 C16.58361061 186.99732077 16.59195228 188.91701252 16.60948563 190.83660126 C16.63212641 193.45806058 16.62390669 196.07768957 16.60800171 198.69915771 C16.6218838 199.45850609 16.63576588 200.21785446 16.65006864 201.00021338 C16.5637567 206.77553677 14.93706136 209.08349143 11 213 C7.56705476 215.46387747 3.71388385 215.47314277 -0.38671875 215.74609375 C-1.11207825 215.80155869 -1.83743774 215.85702362 -2.58477783 215.91416931 C-4.14170936 216.03297252 -5.69890405 216.14836704 -7.25631714 216.26068115 C-11.3653148 216.55952672 -15.47162004 216.89155635 -19.578125 217.22265625 C-20.39486191 217.28815674 -21.21159882 217.35365723 -22.05308533 217.42114258 C-51.90872769 219.84425501 -81.21056323 225.53445926 -110.54296875 231.40893555 C-111.40582993 231.58037079 -112.2686911 231.75180603 -113.15769958 231.92843628 C-114.7845285 232.25175663 -116.41075888 232.57810845 -118.03627014 232.9079895 C-121.45225446 233.58460403 -124.50111863 234 -128 234 C-128.0825 234.86625 -128.165 235.7325 -128.25 236.625 C-129.50770245 242.28466103 -132.62769297 246.24861847 -137.15234375 249.8359375 C-145.84814791 255.31447796 -155.1519983 257.23900275 -165.1953125 255.421875 C-173.47611034 253.26847604 -179.49796942 249.61806112 -185 243 C-186.70903683 239.58718491 -187 237.91438215 -187 234 C-209.97713947 229.10824462 -233.14754146 225.29101295 -256.31933594 221.45135498 C-258.18915463 221.13652553 -260.05722235 220.81119453 -261.92382812 220.47784424 C-268.7667029 219.27648364 -275.53155727 218.53235759 -282.4609375 218.0703125 C-284.58208438 217.91347739 -286.70317679 217.75590407 -288.82421875 217.59765625 C-292.11526789 217.35754525 -295.40640716 217.1228822 -298.69873047 216.90087891 C-301.91250022 216.68148784 -305.1240158 216.44009954 -308.3359375 216.1953125 C-309.80793106 216.1044487 -309.80793106 216.1044487 -311.30966187 216.01174927 C-318.1270793 215.46945724 -322.18056604 214.2083214 -326.8125 208.9375 C-329.33155808 204.82745787 -329.14581437 200.88516872 -329.14044189 196.23196411 C-329.14489858 195.03284655 -329.14489858 195.03284655 -329.1494453 193.80950439 C-329.15814008 191.12185309 -329.15964119 188.43424629 -329.16113281 185.74658203 C-329.16576039 183.82324122 -329.17078497 181.89990132 -329.17617798 179.9765625 C-329.18930872 174.74516666 -329.19574811 169.51378365 -329.20018864 164.28237391 C-329.20311792 161.01571002 -329.20722242 157.74904966 -329.21169281 154.48238754 C-329.22536873 144.26659064 -329.23503526 134.05080177 -329.2388947 123.83499634 C-329.24337761 112.03308015 -329.26093593 100.23127966 -329.2898953 88.42939866 C-329.31149153 79.31256024 -329.32159786 70.19575442 -329.32293582 61.07889068 C-329.32398521 55.63100038 -329.32992158 50.18321881 -329.34775543 44.73535538 C-329.3642008 39.61195933 -329.36640883 34.48875418 -329.35761642 29.36534119 C-329.35684419 27.48396672 -329.36121327 25.60258214 -329.37107468 23.72123337 C-329.3837402 21.15459437 -329.37794699 18.58863703 -329.36749268 16.02200317 C-329.37957728 14.90298022 -329.37957728 14.90298022 -329.39190602 13.76135075 C-329.34964551 9.33094215 -328.7499922 6.50846524 -326 3 C-323 1 -323 1 -313 1 C-313 66.01 -313 131.02 -313 198 C-309.7 198 -306.4 198 -303 198 C-299.81937381 198.29969173 -296.6854842 198.64050587 -293.5234375 199.06640625 C-292.20899406 199.2375293 -292.20899406 199.2375293 -290.86799622 199.41210938 C-288.03559507 199.78587416 -285.20518984 200.17236071 -282.375 200.5625 C-280.91968369 200.76116165 -280.91968369 200.76116165 -279.43496704 200.96383667 C-266.5907257 202.73312976 -253.85222326 204.77615144 -241.1875 207.5625 C-239.9588623 207.83070557 -238.73022461 208.09891113 -237.46435547 208.37524414 C-228.76038736 210.37836719 -220.43105269 213.08304681 -212 216 C-210.36924909 216.53357687 -208.73786459 217.06522695 -207.10546875 217.59375 C-202.76178733 219.04536069 -198.53326081 220.72495208 -194.3125 222.5 C-193.11113403 223.00080078 -193.11113403 223.00080078 -191.88549805 223.51171875 C-187.21583821 225.49960967 -182.66700909 227.6417711 -178.15625 229.96875 C-177.18260498 230.47083984 -176.20895996 230.97292969 -175.20581055 231.49023438 C-173.31636501 232.47617069 -171.43453973 233.47688975 -169.56176758 234.49414062 C-164.02579302 237.39415657 -160.26107827 238.85936368 -154 238 C-151.51999598 236.99591485 -149.42399334 235.99547822 -147.125 234.6875 C-139.88838338 230.8343974 -132.48586783 227.50905265 -124.9375 224.3125 C-123.88643066 223.86156982 -122.83536133 223.41063965 -121.75244141 222.94604492 C-84.47735038 207.23779095 -40.47320644 198 0 198 C0 132.66 0 67.32 0 0 Z " fill="#050505" transform="translate(433,172)"/>
<path d="M0 0 C13.30390942 1.90055849 25.06858001 9.26181901 35 18 C35.82371094 18.62648437 36.64742188 19.25296875 37.49609375 19.8984375 C48.65627987 29.26533318 57.20005002 45.680044 59 60 C60.89740891 82.84132706 54.89720072 100.08632255 40.07250977 117.62646484 C37.54014265 120.51141775 35.09571332 122.82792075 31.8125 124.8125 C28.67398054 126.77406554 28.67398054 126.77406554 28.25 130.375 C29.03214029 139.09503212 32.98274154 148.34246921 37 156 C26.28683174 157.24571724 14.7417865 150.68438749 6 145 C4.41796875 143.47265625 4.41796875 143.47265625 3.1875 142.0625 C2.465625 141.381875 1.74375 140.70125 1 140 C-1.96694078 140.28885376 -4.66267914 140.8989085 -7.515625 141.75390625 C-29.52368603 148.2620043 -53.90499202 144.32855306 -74 134 C-78.15626866 131.56882354 -82.17924386 128.93204546 -86 126 C-86 125.67 -86 125.34 -86 125 C-85.1181604 124.94054199 -85.1181604 124.94054199 -84.21850586 124.87988281 C-55.30198629 122.83838499 -28.83296446 114.8929514 -8.3125 93.25 C7.52291009 74.86961329 12.45020637 54.79877769 11 31 C9.68006509 19.87127048 5.04988275 9.87280447 0 0 Z " fill="#EFA566" transform="translate(332,160)"/>
<path d="M0 0 C0.33 0 0.66 0 1 0 C1 2.31 1 4.62 1 7 C-0.98 5.68 -2.96 4.36 -5 3 C-4.34 2.67 -3.68 2.34 -3 2 C-2.01 2.33 -1.02 2.66 0 3 C0 2.01 0 1.02 0 0 Z " fill="#6BB4D4" transform="translate(268,395)"/>
</svg>
